<svg width="238" height="46" viewBox="0 0 238 46" fill="none" xmlns="http://www.w3.org/2000/svg">
<path d="M28 28H20V42H28V28Z" fill="#965353"/>
<path d="M14.21 19.331C14.21 19.271 14.23 19.191 14.27 19.091C14.31 19.011 14.35 18.921 14.39 18.821L21.74 8.02098C21.94 7.74098 22.13 7.52098 22.31 7.36098C22.51 7.22098 22.76 7.15098 23.06 7.15098L23.99 7.15098C24.29 7.15098 24.53 7.22098 24.71 7.36098C24.89 7.52098 25.08 7.74098 25.28 8.02098L32.63 18.821C32.69 18.921 32.74 19.011 32.78 19.091C32.82 19.191 32.84 19.271 32.84 19.331C32.84 19.511 32.78 19.661 32.66 19.781C32.54 19.901 32.39 19.961 32.21 19.961L29 19.961C28.68 19.961 28.43 19.871 28.25 19.691C28.09 19.511 27.94 19.321 27.8 19.121L23.51 12.581L19.19 19.121C19.07 19.321 18.93 19.511 18.77 19.691C18.61 19.871 18.37 19.961 18.05 19.961L14.81 19.961C14.63 19.961 14.48 19.901 14.36 19.781C14.26 19.661 14.21 19.511 14.21 19.331Z" fill="#6C38CC"/>
<path d="M11.28 29.108C11.28 29.028 11.3067 28.9213 11.36 28.788C11.4133 28.6813 11.4667 28.5613 11.52 28.428L21.32 14.028C21.5867 13.6546 21.84 13.3613 22.08 13.148C22.3467 12.9613 22.68 12.868 23.08 12.868L24.32 12.868C24.72 12.868 25.04 12.9613 25.28 13.148C25.52 13.3613 25.7733 13.6546 26.04 14.028L35.84 28.428C35.92 28.5613 35.9867 28.6813 36.04 28.788C36.0933 28.9213 36.12 29.028 36.12 29.108C36.12 29.348 36.04 29.548 35.88 29.708C35.72 29.868 35.52 29.948 35.28 29.948L31 29.948C30.5733 29.948 30.24 29.828 30 29.588C29.7867 29.348 29.5867 29.0946 29.4 28.828L23.68 20.108L17.92 28.828C17.76 29.0946 17.5733 29.348 17.36 29.588C17.1467 29.828 16.8267 29.948 16.4 29.948L12.08 29.948C11.84 29.948 11.64 29.868 11.48 29.708C11.3467 29.548 11.28 29.348 11.28 29.108Z" fill="#D77CE6"/>
<path d="M8.35 38.885C8.35 38.785 8.38333 38.6516 8.45 38.485C8.51667 38.3516 8.58333 38.2016 8.65 38.035L20.9 20.035C21.2333 19.5683 21.55 19.2016 21.85 18.935C22.1833 18.7016 22.6 18.585 23.1 18.585L24.65 18.585C25.15 18.585 25.55 18.7016 25.85 18.935C26.15 19.2016 26.4667 19.5683 26.8 20.035L39.05 38.035C39.15 38.2016 39.2333 38.3516 39.3 38.485C39.3667 38.6516 39.4 38.785 39.4 38.885C39.4 39.185 39.3 39.435 39.1 39.635C38.9 39.835 38.65 39.935 38.35 39.935L33 39.935C32.4667 39.935 32.05 39.785 31.75 39.485C31.4833 39.185 31.2333 38.8683 31 38.535L23.85 27.635L16.65 38.535C16.45 38.8683 16.2167 39.185 15.95 39.485C15.6833 39.785 15.2833 39.935 14.75 39.935L9.35 39.935C9.05 39.935 8.8 39.835 8.6 39.635C8.43333 39.435 8.35 39.185 8.35 38.885Z" fill="#6C38CC"/>
<path d="M65.264 18.2C66.752 18.2 68.04 18.448 69.128 18.944C70.232 19.44 71.08 20.144 71.672 21.056C72.264 21.968 72.56 23.048 72.56 24.296C72.56 25.528 72.264 26.608 71.672 27.536C71.08 28.448 70.232 29.152 69.128 29.648C68.04 30.128 66.752 30.368 65.264 30.368H61.88V35H57.992V18.2H65.264ZM65.048 27.2C66.216 27.2 67.104 26.952 67.712 26.456C68.32 25.944 68.624 25.224 68.624 24.296C68.624 23.352 68.32 22.632 67.712 22.136C67.104 21.624 66.216 21.368 65.048 21.368H61.88V27.2H65.048ZM88.3141 22.088V35H84.7621V33.464C84.2661 34.024 83.6741 34.456 82.9861 34.76C82.2981 35.048 81.5541 35.192 80.7541 35.192C79.0581 35.192 77.7141 34.704 76.7221 33.728C75.7301 32.752 75.2341 31.304 75.2341 29.384V22.088H78.9781V28.832C78.9781 30.912 79.8501 31.952 81.5941 31.952C82.4901 31.952 83.2101 31.664 83.7541 31.088C84.2981 30.496 84.5701 29.624 84.5701 28.472V22.088H88.3141ZM95.3587 23.792C95.8067 23.168 96.4067 22.696 97.1587 22.376C97.9267 22.056 98.8067 21.896 99.7987 21.896V25.352C99.3827 25.32 99.1027 25.304 98.9587 25.304C97.8867 25.304 97.0467 25.608 96.4387 26.216C95.8307 26.808 95.5267 27.704 95.5267 28.904V35H91.7827V22.088H95.3587V23.792ZM109.657 21.896C110.857 21.896 111.945 22.176 112.921 22.736C113.913 23.28 114.689 24.056 115.249 25.064C115.809 26.056 116.089 27.216 116.089 28.544C116.089 29.872 115.809 31.04 115.249 32.048C114.689 33.04 113.913 33.816 112.921 34.376C111.945 34.92 110.857 35.192 109.657 35.192C108.009 35.192 106.713 34.672 105.769 33.632V39.656H102.025V22.088H105.601V23.576C106.529 22.456 107.881 21.896 109.657 21.896ZM109.009 32.12C109.969 32.12 110.753 31.8 111.361 31.16C111.985 30.504 112.297 29.632 112.297 28.544C112.297 27.456 111.985 26.592 111.361 25.952C110.753 25.296 109.969 24.968 109.009 24.968C108.049 24.968 107.257 25.296 106.633 25.952C106.025 26.592 105.721 27.456 105.721 28.544C105.721 29.632 106.025 30.504 106.633 31.16C107.257 31.8 108.049 32.12 109.009 32.12ZM123.227 35.192C121.771 35.192 120.635 34.808 119.819 34.04C119.003 33.256 118.595 32.152 118.595 30.728V17.192H122.339V30.512C122.339 31.056 122.475 31.48 122.747 31.784C123.035 32.072 123.435 32.216 123.947 32.216C124.139 32.216 124.331 32.192 124.523 32.144C124.731 32.096 124.891 32.04 125.003 31.976L125.171 34.88C124.547 35.088 123.899 35.192 123.227 35.192ZM133.279 32.192C133.951 32.192 134.543 32.096 135.055 31.904C135.583 31.696 136.071 31.376 136.519 30.944L138.511 33.104C137.295 34.496 135.519 35.192 133.183 35.192C131.727 35.192 130.439 34.912 129.319 34.352C128.199 33.776 127.335 32.984 126.727 31.976C126.119 30.968 125.815 29.824 125.815 28.544C125.815 27.28 126.111 26.144 126.703 25.136C127.311 24.112 128.135 23.32 129.175 22.76C130.231 22.184 131.415 21.896 132.727 21.896C133.959 21.896 135.079 22.16 136.087 22.688C137.095 23.2 137.895 23.952 138.487 24.944C139.095 25.92 139.399 27.08 139.399 28.424L129.847 30.272C130.119 30.912 130.543 31.392 131.119 31.712C131.711 32.032 132.431 32.192 133.279 32.192ZM132.727 24.728C131.783 24.728 131.015 25.032 130.423 25.64C129.831 26.248 129.519 27.088 129.487 28.16L135.775 26.936C135.599 26.264 135.239 25.728 134.695 25.328C134.151 24.928 133.495 24.728 132.727 24.728ZM147.7 35.288C146.372 35.288 145.084 35.112 143.836 34.76C142.604 34.392 141.612 33.92 140.86 33.344L142.18 30.416C142.9 30.944 143.756 31.368 144.748 31.688C145.74 32.008 146.732 32.168 147.724 32.168C148.828 32.168 149.644 32.008 150.172 31.688C150.7 31.352 150.964 30.912 150.964 30.368C150.964 29.968 150.804 29.64 150.484 29.384C150.18 29.112 149.78 28.896 149.284 28.736C148.804 28.576 148.148 28.4 147.316 28.208C146.036 27.904 144.988 27.6 144.172 27.296C143.356 26.992 142.652 26.504 142.06 25.832C141.484 25.16 141.196 24.264 141.196 23.144C141.196 22.168 141.46 21.288 141.988 20.504C142.516 19.704 143.308 19.072 144.364 18.608C145.436 18.144 146.74 17.912 148.276 17.912C149.348 17.912 150.396 18.04 151.42 18.296C152.444 18.552 153.34 18.92 154.108 19.4L152.908 22.352C151.356 21.472 149.804 21.032 148.252 21.032C147.164 21.032 146.356 21.208 145.828 21.56C145.316 21.912 145.06 22.376 145.06 22.952C145.06 23.528 145.356 23.96 145.948 24.248C146.556 24.52 147.476 24.792 148.708 25.064C149.988 25.368 151.036 25.672 151.852 25.976C152.668 26.28 153.364 26.76 153.94 27.416C154.532 28.072 154.828 28.96 154.828 30.08C154.828 31.04 154.556 31.92 154.012 32.72C153.484 33.504 152.684 34.128 151.612 34.592C150.54 35.056 149.236 35.288 147.7 35.288ZM163.46 35.192C162.084 35.192 160.844 34.912 159.74 34.352C158.652 33.776 157.796 32.984 157.172 31.976C156.564 30.968 156.26 29.824 156.26 28.544C156.26 27.264 156.564 26.12 157.172 25.112C157.796 24.104 158.652 23.32 159.74 22.76C160.844 22.184 162.084 21.896 163.46 21.896C164.82 21.896 166.004 22.184 167.012 22.76C168.036 23.32 168.78 24.128 169.244 25.184L166.34 26.744C165.668 25.56 164.7 24.968 163.436 24.968C162.46 24.968 161.652 25.288 161.012 25.928C160.372 26.568 160.052 27.44 160.052 28.544C160.052 29.648 160.372 30.52 161.012 31.16C161.652 31.8 162.46 32.12 163.436 32.12C164.716 32.12 165.684 31.528 166.34 30.344L169.244 31.928C168.78 32.952 168.036 33.752 167.012 34.328C166.004 34.904 164.82 35.192 163.46 35.192ZM179.154 21.896C180.754 21.896 182.042 22.376 183.018 23.336C184.01 24.296 184.506 25.72 184.506 27.608V35H180.762V28.184C180.762 27.16 180.538 26.4 180.09 25.904C179.642 25.392 178.994 25.136 178.146 25.136C177.202 25.136 176.45 25.432 175.89 26.024C175.33 26.6 175.05 27.464 175.05 28.616V35H171.306V17.192H175.05V23.432C175.546 22.936 176.146 22.56 176.85 22.304C177.554 22.032 178.322 21.896 179.154 21.896ZM194.185 35.192C192.825 35.192 191.601 34.912 190.513 34.352C189.441 33.776 188.601 32.984 187.993 31.976C187.385 30.968 187.081 29.824 187.081 28.544C187.081 27.264 187.385 26.12 187.993 25.112C188.601 24.104 189.441 23.32 190.513 22.76C191.601 22.184 192.825 21.896 194.185 21.896C195.545 21.896 196.761 22.184 197.833 22.76C198.905 23.32 199.745 24.104 200.353 25.112C200.961 26.12 201.265 27.264 201.265 28.544C201.265 29.824 200.961 30.968 200.353 31.976C199.745 32.984 198.905 33.776 197.833 34.352C196.761 34.912 195.545 35.192 194.185 35.192ZM194.185 32.12C195.145 32.12 195.929 31.8 196.537 31.16C197.161 30.504 197.473 29.632 197.473 28.544C197.473 27.456 197.161 26.592 196.537 25.952C195.929 25.296 195.145 24.968 194.185 24.968C193.225 24.968 192.433 25.296 191.809 25.952C191.185 26.592 190.873 27.456 190.873 28.544C190.873 29.632 191.185 30.504 191.809 31.16C192.433 31.8 193.225 32.12 194.185 32.12ZM209.911 35.192C208.551 35.192 207.327 34.912 206.239 34.352C205.167 33.776 204.327 32.984 203.719 31.976C203.111 30.968 202.807 29.824 202.807 28.544C202.807 27.264 203.111 26.12 203.719 25.112C204.327 24.104 205.167 23.32 206.239 22.76C207.327 22.184 208.551 21.896 209.911 21.896C211.271 21.896 212.487 22.184 213.559 22.76C214.631 23.32 215.471 24.104 216.079 25.112C216.687 26.12 216.991 27.264 216.991 28.544C216.991 29.824 216.687 30.968 216.079 31.976C215.471 32.984 214.631 33.776 213.559 34.352C212.487 34.912 211.271 35.192 209.911 35.192ZM209.911 32.12C210.871 32.12 211.655 31.8 212.263 31.16C212.887 30.504 213.199 29.632 213.199 28.544C213.199 27.456 212.887 26.592 212.263 25.952C211.655 25.296 210.871 24.968 209.911 24.968C208.951 24.968 208.159 25.296 207.535 25.952C206.911 26.592 206.599 27.456 206.599 28.544C206.599 29.632 206.911 30.504 207.535 31.16C208.159 31.8 208.951 32.12 209.911 32.12ZM224.126 35.192C222.67 35.192 221.534 34.808 220.718 34.04C219.902 33.256 219.494 32.152 219.494 30.728V17.192H223.238V30.512C223.238 31.056 223.374 31.48 223.646 31.784C223.934 32.072 224.334 32.216 224.846 32.216C225.038 32.216 225.23 32.192 225.422 32.144C225.63 32.096 225.79 32.04 225.902 31.976L226.07 34.88C225.446 35.088 224.798 35.192 224.126 35.192Z" fill="#FAFAFA"/>
</svg>
